# xmcd CD database file
#
# Track frame offsets:
#	150
#	13733
#	26824
#	36115
#	54269
#	70220
#	87721
#	100297
#
# Disc length: 1616 seconds
#
# Revision: 6
# Processed by: cddbd v1.5.2PL0 Copyright (c) Steve Scherf et al.
# Submitted via: CDex 1.82
#
DISCID=67064e08
DTITLE=Miss Whiskey - One Cold Night
DYEAR=2016
DGENRE=Blues
TTITLE0=Baby What You Want Me to Do
TTITLE1=Checking up on My Baby
TTITLE2=Three Times
TTITLE3=Too Much Drinking
TTITLE4=Trouble in Mind
TTITLE5=Number Nine Train
TTITLE6=Owl Song
TTITLE7=Roll and Tumble Blues
EXTD=YEAR: 2016
EXTT0=
EXTT1=
EXTT2=
EXTT3=
EXTT4=
EXTT5=
EXTT6=
EXTT7=
PLAYORDER=
